<?xml version="1.0" encoding="UTF-8" standalone="no"?>
<!-- Created with Inkscape (http://www.inkscape.org/) -->

<svg
   width="118.72864mm"
   height="33.726109mm"
   viewBox="0 0 118.72864 33.726109"
   version="1.1"
   id="svg1"
   xml:space="preserve"
   xmlns="http://www.w3.org/2000/svg"
   xmlns:svg="http://www.w3.org/2000/svg"><defs
     id="defs1" /><g
     id="layer2"
     transform="translate(252.68002,-82.04631)"><g
       id="g14"
       transform="translate(3.4755409,-1.5610815)"><path
         style="-inkscape-font-specification:'Eurostile Extended, Normal';fill:#3234d0;fill-opacity:1"
         d="m -183.80583,90.831202 c -3.26509,0.15811 -8.13953,-0.43302 -9.9668,3.003908 -0.45872,0.93987 -0.66016,2.0468 -0.66016,3.30468 0,1.65395 0.54866,3.09007 1.71875,3.91602 1.10008,0.77652 2.54038,1.09766 4.25977,1.09766 2.80779,0.10367 5.61659,0.14114 8.42578,0.17773 1.61501,-0.0267 2.69533,0.0785 2.74233,1.82033 0,1.05702 -0.0734,1.67788 -2.27539,1.95313 -1.14184,0.14474 -2.58809,0.2207 -4.32031,0.2207 -2.28114,0 -6.00614,-0.1004 -6.30274,-0.74805 -0.22876,-0.94752 -0.16406,-1.94008 -0.16406,-2.9082 h -4.05859 c -0.0184,1.85687 -0.0482,3.80397 1.04492,5.39258 l 0.004,0.004 0.004,0.006 c 1.37099,1.57514 3.30104,2.0332 9.37114,2.0332 5.52726,0.0494 8.86876,-0.23981 10.25224,-2.93759 l 0.002,-0.006 c 0.40128,-0.86593 0.57617,-1.87301 0.57617,-3.00977 0,-1.71445 -0.35632,-3.12079 -1.32422,-4.04492 -0.83392,-0.8272 -1.95601,-1.30833 -3.22461,-1.44531 h -0.002 c -1.09526,-0.11976 -1.92026,-0.19044 -2.51367,-0.20899 -2.1909,-0.0685 -3.39087,0.0579 -7.7149,-0.0508 -1.48011,0 -2.30767,-0.26421 -2.33987,-1.66796 -0.007,-0.67515 0.0418,-1.21296 0.66992,-1.52149 1.30792,-0.57221 5.58943,-0.57617 5.66992,-0.57617 4.32452,0 5.77639,0.26582 6.10049,0.78524 0.25438,0.72805 0.18983,1.52585 0.18983,2.28711 h 4.05859 c 0.0558,-1.77531 -0.0799,-3.57202 -1.25,-4.998039 -1.25986,-1.31591 -2.80789,-1.878909 -8.97073,-1.878909 z m -65.54115,0.17773 v 18.943358 h 17.44345 v -3.70312 h -13.3868 V 91.008932 Z m 26.25014,0 v 18.943358 h 18.96874 v -3.70312 h -14.91015 v -4.22266 h 14.19726 v -3.70117 h -14.19726 v -3.58789 h 14.73242 v -3.728518 z m 59.89452,0 v 18.943358 h 18.9668 v -3.70312 h -14.91016 v -4.22266 h 14.19922 v -3.70117 h -14.19922 v -3.58789 h 14.73243 v -3.728518 z"
         id="path14-9-4-0-60-9" /><path
         style="opacity:1;fill:none;fill-opacity:1;stroke:#3235d1;stroke-width:2.64583;stroke-linecap:round;stroke-linejoin:round;stroke-miterlimit:0;stroke-dasharray:none;stroke-opacity:1;paint-order:normal"
         id="rect13-5"
         width="116.08282"
         height="31.080273"
         x="-116.39787"
         y="53.261242"
         d="M -111.10621,53.261242 H -5.6067223 a 5.2916665,5.2916665 45 0 1 5.29166645,5.291666 v 20.49694 A 5.2916665,5.2916665 135 0 1 -5.6067223,84.341515 H -111.10621 a 5.2916665,5.2916665 45 0 1 -5.29166,-5.291667 v -20.49694 a 5.2916665,5.2916665 135 0 1 5.29166,-5.291666 z"
         transform="translate(-138.43479,31.669063)" /></g></g></svg>
